<!--?xml version="1.0" encoding="utf-8"?-->
<!-- Generator: Adobe Illustrator 15.1.0, SVG Export Plug-In . SVG Version: 6.00 Build 0)  -->

<svg version="1.1" id="_x32_" xmlns="http://www.w3.org/2000/svg" xmlns:xlink="http://www.w3.org/1999/xlink" x="0px" y="0px" width="512px" height="512px" viewBox="0 0 512 512" style="width: 256px; height: 256px; opacity: 1;" xml:space="preserve">
<style type="text/css">

	.st0{fill:#4B4B4B;}

</style>
<g>
	<path class="st0" d="M196.25,326.313l59.75-59.75C223,266.563,196.25,293.313,196.25,326.313z" style="fill: rgb(75, 75, 75);"></path>
	<path class="st0" d="M256,450.547c34.344-0.016,65.328-13.891,87.844-36.391c22.516-22.531,36.391-53.5,36.406-87.844
		c-0.016-34.359-13.891-65.344-36.406-87.859c-22.516-22.5-53.5-36.391-87.844-36.391s-65.328,13.891-87.844,36.391
		c-22.516,22.516-36.391,53.5-36.406,87.859c0.016,34.344,13.891,65.313,36.406,87.844C190.672,436.656,221.656,450.531,256,450.547
		z M256,238.938c48.25,0,87.344,39.125,87.344,87.375S304.25,413.656,256,413.656s-87.344-39.094-87.344-87.344
		S207.75,238.938,256,238.938z" style="fill: rgb(75, 75, 75);"></path>
	<path class="st0" d="M0,437.797C0,478.781,33.219,512,74.219,512h363.563c41,0,74.219-33.219,74.219-74.203V158.313H0V437.797z
		 M256,176.969c82.484,0,149.344,66.844,149.344,149.344c0,82.469-66.859,149.328-149.344,149.344
		c-82.484-0.016-149.344-66.875-149.344-149.344C106.656,243.813,173.516,176.969,256,176.969z" style="fill: rgb(75, 75, 75);"></path>
	<path class="st0" d="M437.781,0H74.219C33.219,0,0,33.219,0,74.219v49.031h512V74.219C512,33.219,478.781,0,437.781,0z
		 M444.813,96.641h-55.219V41.422h55.219V96.641z" style="fill: rgb(75, 75, 75);"></path>
</g>
</svg>
