<?xml version="1.0" encoding="iso-8859-1"?>
<!-- Generator: Adobe Illustrator 18.1.1, SVG Export Plug-In . SVG Version: 6.00 Build 0)  -->
<svg version="1.1" id="_x33_" xmlns="http://www.w3.org/2000/svg" xmlns:xlink="http://www.w3.org/1999/xlink" x="0px" y="0px"
	 viewBox="0 0 512 512" style="enable-background:new 0 0 512 512;" xml:space="preserve">
<g>
	<path d="M88.058,281.99c-3.664-0.072-9.167,0.326-10.273-4.13c-0.102-0.41-0.853,0.162-0.76,0.539
		c1.157,4.654,6.841,4.312,10.668,4.387C88.064,282.792,88.555,282,88.058,281.99z"/>
	<path d="M85.432,275.914c0.561,0.028,0.727-0.896,0.127-0.926c-3.028-0.155-6.842-0.292-7.705-3.813
		c-0.143-0.588-1.036-0.381-0.9,0.174C77.939,275.37,81.857,275.73,85.432,275.914z"/>
	<path d="M88.86,268.212c-3.623-0.043-9.91,0.585-11.054-3.979c-0.146-0.583-0.923-0.161-0.802,0.321
		c1.277,5.098,7.634,4.513,11.791,4.564C89.281,269.124,89.43,268.219,88.86,268.212z"/>
	<path d="M77.712,257.396c-0.15-0.609-0.74-0.242-0.614,0.261c1.067,4.34,5.595,4.438,9.357,4.572
		c0.429,0.015,0.423-0.937-0.015-0.952C83.212,261.163,78.662,261.253,77.712,257.396z"/>
	<path d="M89.688,255.361c0.495,0.004,0.782-0.841,0.18-0.846c-3.881-0.027-10.818,0.849-12.044-4.066
		c-0.128-0.511-0.959-0.051-0.841,0.42C78.302,256.153,85.526,255.331,89.688,255.361z"/>
	<path d="M84.436,248.39c0.541,0.039,0.785-0.88,0.216-0.92c-2.896-0.213-6.033-0.586-6.825-3.839
		c-0.145-0.593-0.973-0.21-0.844,0.325C77.858,247.552,81.169,248.15,84.436,248.39z"/>
	<path d="M88.876,241.671c0.594,0.006,0.491-0.94-0.098-0.948c-3.651-0.046-9.804,0.591-10.946-3.969
		c-0.15-0.596-1.001-0.237-0.855,0.343C78.254,242.196,84.748,241.62,88.876,241.671z"/>
	<path d="M86.476,234.753c0.514,0.018,0.401-0.921-0.059-0.937c-3.23-0.114-7.719-0.01-8.667-3.853
		c-0.142-0.579-0.836-0.383-0.694,0.192C78.128,234.504,82.718,234.62,86.476,234.753z"/>
	<path d="M60.875,238.984c-0.339,0.023-0.63,0.919-0.256,0.891c3.856-0.282,7.881,0.278,11.354,2.04
		c0.312,0.159,0.716-0.703,0.395-0.867C68.865,239.271,64.76,238.7,60.875,238.984z"/>
	<path d="M56.884,233.969c4.542-1.267,9.935-0.624,14.127,1.508c0.331,0.168,0.747-0.686,0.412-0.856
		c-4.293-2.184-9.79-2.805-14.43-1.51C56.668,233.199,56.425,234.097,56.884,233.969z"/>
	<path d="M71.558,226.882c-2.852-1.458-6.046-2.06-9.227-2.186c-0.43-0.018-0.901,0.739-0.315,0.763
		c3.039,0.119,6.131,0.668,8.861,2.065C71.258,227.719,71.973,227.094,71.558,226.882z"/>
	<path d="M57.496,209.586c3.144-0.341,6.178-1.352,9.141-2.419c0.464-0.169,0.15-1.053-0.36-0.869
		c-2.896,1.042-5.87,2.017-8.944,2.35C56.824,208.704,56.983,209.642,57.496,209.586z"/>
	<path d="M31.242,211.19c-3.824-0.242-7.589-0.919-11.305-1.844c-0.588-0.146-0.807,0.767-0.242,0.91
		c3.789,0.942,7.639,1.637,11.54,1.883C31.829,212.178,31.822,211.227,31.242,211.19z"/>
	<path d="M32.257,236.226c-1.755-0.057-3.505-0.68-5.118-1.346c-0.539-0.221-0.909,0.655-0.369,0.878
		c1.676,0.69,3.527,1.347,5.353,1.409C32.696,237.184,32.85,236.247,32.257,236.226z"/>
	<path d="M95.01,281.945c-1.482,0-2.966,0-4.45-0.022c-0.521-0.008-0.715,0.923-0.157,0.932c1.484,0.022,2.967,0.02,4.45,0.02
		C95.373,282.875,95.566,281.945,95.01,281.945z"/>
	<path d="M88.097,275.854c2.156,0.092,4.315,0.079,6.473,0.079c0.36,0,0.854-0.792,0.365-0.792c-2.158,0-4.316,0.013-6.472-0.08
		C88.102,275.046,87.605,275.832,88.097,275.854z"/>
	<path d="M95.001,268.219c-1.213,0-2.427,0-3.641-0.011c-0.594-0.005-0.608,0.911,0.005,0.916c1.213,0.011,2.428,0.011,3.641,0.011
		C95.6,269.135,95.617,268.219,95.001,268.219z"/>
	<path d="M94.785,261.342c-1.887,0-3.776,0.005-5.663-0.049c-0.447-0.013-0.294,0.918,0.076,0.929
		c1.888,0.055,3.776,0.05,5.664,0.05C95.311,262.271,95.153,261.342,94.785,261.342z"/>
	<path d="M95.1,254.467c-0.943,0-1.887,0-2.831-0.004c-0.366-0.003-0.405,0.949-0.052,0.951c0.944,0.005,1.889,0.005,2.833,0.005
		C95.415,255.419,95.454,254.467,95.1,254.467z"/>
	<path d="M94.807,248.516c0.496,0,0.202-0.902-0.251-0.902c-2.393,0-4.793,0.026-7.184-0.122c-0.553-0.034-0.391,0.868,0.056,0.895
		C89.884,248.541,92.346,248.516,94.807,248.516z"/>
	<path d="M91.369,240.737c-0.582-0.004-0.532,0.915-0.013,0.92c1.25,0.013,2.5,0.013,3.75,0.013c0.549,0,0.31-0.921-0.206-0.921
		C93.723,240.748,92.547,240.748,91.369,240.737z"/>
	<path d="M89.091,234.761c1.887,0.053,3.776,0.048,5.664,0.048c0.525,0,0.66-0.941,0.14-0.941c-1.888,0-3.777,0.005-5.664-0.048
		C88.704,233.802,88.568,234.745,89.091,234.761z"/>
	<path d="M58.048,239.529c-1.559,0.164-3.093,0.564-4.321,1.579c-0.402,0.334,0.088,1.12,0.538,0.747
		c1.11-0.917,2.531-1.24,3.932-1.386C58.732,240.412,58.584,239.473,58.048,239.529z"/>
	<path d="M54.771,233.571c-0.812,0.259-1.561,0.622-2.213,1.175c-0.27,0.231-0.235,1.121,0.195,0.754
		c0.556-0.472,1.22-0.783,1.913-1.004C55.011,234.386,55.139,233.455,54.771,233.571z"/>
	<path d="M53.572,227.408c1.5-1.218,3.589-1.39,5.445-1.364c0.364,0.005,0.888-0.77,0.401-0.777
		c-2.211-0.029-4.48,0.275-6.245,1.708C52.716,227.346,53.125,227.77,53.572,227.408z"/>
	<path d="M82.915,201.715c1.198-0.492,2.422-0.901,3.692-1.165c0.412-0.086,0.569-1.022,0.117-0.926
		c-1.331,0.275-2.616,0.691-3.872,1.206C82.47,200.987,82.426,201.916,82.915,201.715z"/>
	<path d="M83.578,206.619c-0.452,0.151-0.251,1.074,0.25,0.906c0.98-0.327,1.972-0.571,2.996-0.707
		c0.494-0.063,0.435-1.014-0.053-0.949C85.68,206.011,84.62,206.271,83.578,206.619z"/>
	<path d="M74.998,203.151c-1.451,0.643-3.107,1.286-4.654,1.852c-0.315,0.117-0.744,0.817-0.16,0.603
		c1.64-0.6,3.269-1.238,4.866-1.946C75.462,203.478,75.582,202.893,74.998,203.151z"/>
	<path d="M35.694,210.671c-0.699,0.108-1.406,0.108-2.112,0.075c-0.456-0.024-0.362,0.921,0.11,0.944
		c0.706,0.035,1.413,0.035,2.112-0.074C36.271,211.543,36.157,210.599,35.694,210.671z"/>
	<path d="M487.469,281.294c2.114-1.957,4.384-3.736,6.792-5.297c2.402-1.566,4.949-2.904,7.62-3.927
		c2.67-1.043,5.445-1.642,8.252-2.303l1.867-0.443l-1.238-1.123c-2.152-2.522-4.769-4.635-7.654-6.24
		c-2.883-1.613-6.01-2.735-9.205-3.446c-3.197-0.713-6.465-1.023-9.728-1.009c-3.259,0.02-6.511,0.358-9.709,1.014
		c-1.594,0.328-3.179,0.742-4.735,1.247c-0.777,0.252-1.547,0.534-2.314,0.842c-0.757,0.299-1.528,0.666-2.224,0.986
		c-2.845,1.279-5.839,2.227-8.909,2.755c-3.061,0.534-6.196,0.647-9.281,0.313c-1.547-0.165-3.075-0.447-4.574-0.841
		c-0.747-0.196-1.484-0.425-2.207-0.682c-0.572-0.204-1.163-0.437-1.69-0.685c0-0.279-0.005-0.555,0-0.838
		c0.028-0.956,0.109-1.899,0.282-2.812c0.185-0.957,0.379-1.994,0.541-2.984c0.329-2.01,0.6-4.022,0.815-6.045
		c0.414-4.041,0.623-8.12,0.37-12.232c-0.132-2.051-0.381-4.117-0.89-6.168c-0.519-2.038-1.27-4.122-2.76-5.901
		c-0.747-0.876-1.713-1.647-2.828-2.114c-0.556-0.233-1.137-0.395-1.722-0.49c-0.294-0.043-0.585-0.075-0.877-0.09
		c-0.147-0.009-0.289-0.004-0.437-0.009h-0.376l-6.031,0.024l-24.106,0.138c-16.073,0.103-32.145,0.174-48.214,0.341
		c-16.072,0.192-32.142,0.427-48.214,0.543c-8.034,0.05-16.067,0.023-24.106,0.009l-24.103-0.033h-0.114l-92.455-0.277
		c-15.412-0.018-30.818-0.038-46.239,0.052c-3.854,0.024-7.71,0.052-11.569,0.124l-2.902,0.065c-0.282,0.007-0.562,0.02-0.844,0.03
		l0.872-15.598h-0.052c0-0.004,0.005-0.014,0.005-0.018c0.123-0.549,0.208-1.095,0.261-1.642l0.028-0.41l0.024-0.4
		c0.009-0.281,0.014-0.542,0.014-0.817c-0.014-1.095-0.152-2.205-0.457-3.29c-0.585-2.175-1.937-4.163-3.679-5.553
		c-1.736-1.405-3.76-2.29-5.797-2.88c-2.046-0.585-4.136-0.877-6.215-0.986c-4.165-0.199-8.315,0.256-12.327,1.357
		c-2.004,0.571-3.894,1.227-5.806,1.869c-1.904,0.643-3.799,1.282-5.702,1.891c-3.826,1.142-7.506,2.774-11.418,3.622
		c-7.734,1.908-15.669,3.127-23.607,2.994c-3.963-0.071-7.924-0.486-11.784-1.343c-3.861-0.841-7.611-2.156-11.138-3.916
		l-1.808-0.906l0.581,1.939c1.075,3.598,2.694,7.033,4.759,10.166c2.065,3.137,4.579,5.964,7.383,8.442
		c2.807,2.481,5.915,4.612,9.247,6.335c1.142,0.585,2.317,1.123,3.518,1.599c-0.424,0.499-0.862,0.99-1.305,1.471
		c-0.976,1.057-2.004,2.066-3.056,3.046c-2.113,1.956-4.384,3.735-6.791,5.297c-2.404,1.566-4.95,2.904-7.62,3.927
		c-2.67,1.042-5.446,1.642-8.253,2.304L0,242.676l1.004,1.18c2.17,2.542,4.878,4.564,7.796,6.087
		c2.922,1.528,6.054,2.584,9.233,3.309c6.372,1.428,12.941,1.608,19.386,0.889c3.221-0.372,6.429-0.977,9.556-1.957
		c0.781-0.246,1.556-0.518,2.328-0.822c0.766-0.3,1.532-0.675,2.222-0.986c1.433-0.641,2.89-1.213,4.375-1.689
		c2.965-0.951,6.049-1.537,9.108-1.48c1.533,0.034,3.051,0.229,4.503,0.629c0.728,0.201,1.438,0.452,2.113,0.756
		c0.334,0.156,0.666,0.324,0.981,0.51c0.156,0.089,0.308,0.186,0.457,0.285c0.128,0.081,0.28,0.195,0.362,0.263
		c0.005,0.265,0.009,0.529,0.005,0.794c-0.029,0.962-0.11,1.919-0.282,2.842c-0.185,0.966-0.376,1.989-0.538,2.982
		c-0.327,2.005-0.599,4.013-0.809,6.032c-0.41,4.036-0.614,8.106-0.362,12.198c0.133,2.048,0.386,4.097,0.89,6.129
		c0.519,2.015,1.261,4.075,2.722,5.807c0.723,0.855,1.661,1.599,2.741,2.047c0.538,0.227,1.104,0.385,1.672,0.475
		c0.552,0.094,1.184,0.1,1.651,0.094l6.031-0.009l24.105-0.062c16.072-0.019,32.147,0.024,48.214-0.066l96.301-0.652l46.229,0.033
		c15.412,0.015,30.818-0.014,46.229,0.129l11.555,0.085c3.856,0.034,7.706,0.034,11.562,0.034
		c7.701,0.018,15.406-0.073,23.111-0.115l11.56-0.099c1.334-0.017,2.666-0.039,3.999-0.058l-0.871,15.592h0.053
		c0,0.005-0.006,0.015-0.006,0.019c-0.123,0.547-0.204,1.086-0.256,1.651c-0.048,0.529-0.067,1.076-0.062,1.617
		c0.019,1.096,0.157,2.205,0.466,3.28c0.59,2.17,1.947,4.15,3.684,5.531c1.732,1.401,3.75,2.284,5.789,2.866
		c2.041,0.58,4.126,0.871,6.206,0.98c4.155,0.19,8.295-0.265,12.308-1.376c1.989-0.571,3.883-1.231,5.792-1.875
		c1.904-0.647,3.797-1.289,5.701-1.909c3.798-1.232,7.625-2.366,11.494-3.323c7.724-1.897,15.645-3.108,23.559-2.97
		c7.888,0.128,15.793,1.708,22.826,5.226l2.286,1.146l-0.749-2.437v-0.004c-1.08-3.617-2.706-7.078-4.787-10.228
		c-2.075-3.151-4.598-5.996-7.421-8.482c-2.826-2.482-5.955-4.62-9.304-6.343c-1.133-0.575-2.29-1.104-3.475-1.575
		c0.381-0.448,0.777-0.886,1.17-1.319C485.389,283.283,486.417,282.274,487.469,281.294z M73.213,223.18
		c-0.51,0.982-0.871,2.024-1.113,3.075c-0.486,2.104-0.541,4.218-0.451,6.278c0.095,2.063,0.344,4.086,0.617,6.087
		c0.396,2.932,0.881,5.842,1.077,8.715c-0.306-0.17-0.616-0.329-0.93-0.473c-0.779-0.354-1.581-0.638-2.395-0.863
		c-1.63-0.448-3.305-0.661-4.97-0.694c-3.338-0.065-6.618,0.571-9.732,1.57c-1.559,0.501-3.081,1.098-4.568,1.763
		c-0.767,0.343-1.434,0.677-2.155,0.956c-0.716,0.286-1.449,0.543-2.192,0.777c-2.974,0.93-6.079,1.52-9.201,1.882
		c-6.247,0.696-12.636,0.514-18.747-0.857c-3.05-0.692-6.026-1.703-8.771-3.139c-2.137-1.116-4.126-2.505-5.84-4.165
		c2.374-0.233,4.702-0.891,6.942-1.688c2.876-1.039,5.62-2.409,8.201-4.024c2.574-1.623,4.983-3.491,7.226-5.531
		c1.124-1.019,2.192-2.095,3.222-3.212c0.717-0.782,1.402-1.566,2.069-2.402c0.516,0.152,1.037,0.291,1.567,0.407
		c0.941,0.203,1.9,0.361,2.928,0.368v-1.904c-1.603-0.016-3.324-0.447-4.966-0.976l-0.934-0.67c-0.066,0.09-0.14,0.179-0.208,0.268
		c-1.333-0.494-2.64-1.074-3.914-1.718c-3.202-1.627-6.205-3.664-8.914-6.028c-2.711-2.363-5.108-5.084-7.088-8.077
		c-1.607-2.432-2.923-5.054-3.914-7.794c6.85,3.062,14.36,4.47,21.802,4.616c8.148,0.171,16.24-1.047,24.097-2.951
		c3.897-1.069,7.928-1.705,11.748-3.04c1.92-0.623,3.83-1.272,5.731-1.919c1.896-0.643,3.804-1.307,5.663-1.844
		c3.73-1.038,7.667-1.48,11.53-1.302c1.93,0.095,3.847,0.363,5.666,0.878c1.815,0.516,3.542,1.29,4.938,2.417
		c1.4,1.117,2.422,2.602,2.902,4.309c0.144,0.503,0.232,1.024,0.296,1.553c-2.778-4.272-7.236-5.32-12.115-4.438
		c-0.533,0.096-0.499,1.044,0.062,0.943c4.649-0.84,8.904,0.066,11.513,4.305c0.169,0.273,0.435,0.229,0.608,0.06
		c0.003,0.082,0.018,0.161,0.019,0.243c0.003,0.226,0.003,0.463-0.006,0.684l-0.017,0.354l-0.025,0.34
		c-0.038,0.454-0.107,0.9-0.199,1.335c-0.195,0.901-0.541,1.737-1.015,2.493c-2.529-3.63-6.527-4.863-10.909-4.384
		c-0.566,0.062-0.612,0.953,0.002,0.884c4.198-0.458,7.957,0.704,10.313,4.304c-0.325,0.39-0.678,0.759-1.084,1.085
		c-1.045,0.852-2.302,1.494-3.645,2.012c-1.155-2.375-5.25-2.83-7.416-3.019c-0.59-0.053-0.725,0.886-0.147,0.937
		c1.809,0.159,5.705,0.57,6.7,2.387c-0.159,0.054-0.312,0.114-0.471,0.166c-3.697,1.187-7.706,1.694-11.68,2.939
		c-1.971,0.64-4.013,1.472-5.701,3.022c-0.208,0.194-0.409,0.398-0.599,0.613c-0.093,0.104-0.189,0.217-0.287,0.34l-0.121,0.154
		l-0.128,0.176C73.757,222.21,73.467,222.686,73.213,223.18z M406.007,285.515l-11.557-0.071c-7.705-0.033-15.41-0.119-23.111-0.095
		c-3.855-0.005-7.706-0.005-11.562,0.032l-11.555,0.082c-15.411,0.133-30.817,0.095-46.229,0.095l-46.229-0.005
		c-16.038-0.099-32.068,0.429-48.102,0.467l-24.107,0.094c-8.034,0.043-16.072,0.085-24.107,0.173
		c-16.072,0.124-32.14,0.384-48.213,0.581c-8.034,0.118-16.068,0.165-24.102,0.237l-6.026,0.042
		c-0.533,0.005-0.914-0.004-1.352-0.075c-0.424-0.068-0.832-0.182-1.218-0.348c-0.781-0.324-1.466-0.862-2.037-1.533
		c-1.147-1.357-1.841-3.174-2.308-5.03c-0.461-1.871-0.699-3.824-0.824-5.79c-0.237-3.93-0.033-7.914,0.377-11.867
		c0.211-1.981,0.476-3.952,0.8-5.913c0.166-0.991,0.343-1.942,0.542-2.946c0.195-1.052,0.282-2.103,0.315-3.146
		c0.061-2.089-0.114-4.136-0.338-6.159c-0.228-2.019-0.524-4.012-0.782-5.991c-0.256-1.98-0.48-3.951-0.561-5.901
		c-0.071-1.952,0.005-3.894,0.438-5.706c0.215-0.904,0.524-1.777,0.947-2.571c0.204-0.391,0.438-0.767,0.696-1.118
		c0.052,0.201,0.114,0.395,0.209,0.557c0.237,0.442,0.544,0.732,0.824,0.95c0.286,0.225,0.566,0.387,0.838,0.519
		c0.542,0.267,1.061,0.443,1.575,0.591c1.023,0.289,2.018,0.461,3.013,0.599c3.96,0.509,7.848,0.528,11.742,0.466
		c1.942-0.037,3.878-0.114,5.815-0.22c0.986-0.056,1.89-0.105,2.855-0.127l2.876-0.067c3.84-0.066,7.691-0.095,11.541-0.118
		c15.397-0.081,30.807-0.053,46.214-0.024l92.46-0.176h0.121l48.212-0.437l48.217-0.015c16.068-0.029,32.14-0.157,48.214-0.247
		l24.102-0.139l6.025-0.023l0.372-0.004c0.109,0.004,0.215,0.004,0.319,0.007c0.215,0.01,0.419,0.034,0.623,0.067
		c0.41,0.061,0.8,0.171,1.171,0.329c0.737,0.315,1.395,0.824,1.946,1.469c1.114,1.31,1.81,3.101,2.267,4.937
		c0.462,1.85,0.699,3.793,0.827,5.749c0.239,3.913,0.038,7.886-0.365,11.831c-0.209,1.976-0.472,3.947-0.796,5.904
		c-0.161,0.99-0.338,1.932-0.538,2.944c-0.194,1.064-0.28,2.125-0.313,3.175c-0.09,4.207,0.638,8.219,1.147,12.18
		c0.267,1.973,0.5,3.941,0.581,5.887c0.08,1.937,0.009,3.868-0.41,5.668c-0.215,0.9-0.514,1.756-0.928,2.546
		c-0.105,0.2-0.22,0.391-0.329,0.581l-0.168,0.257c-0.061,0.09-0.142,0.204-0.213,0.301c-0.043,0.065-0.1,0.123-0.147,0.185
		c-0.072-0.263-0.19-0.5-0.334-0.681c-0.267-0.352-0.557-0.565-0.829-0.741c-0.274-0.171-0.542-0.296-0.805-0.41
		c-0.523-0.214-1.027-0.36-1.527-0.491c-1.005-0.246-1.99-0.404-2.97-0.532c-3.918-0.5-7.792-0.6-11.661-0.68
		C413.703,285.545,409.852,285.563,406.007,285.515z M482.33,282.42c-0.673,0.735-1.316,1.471-1.943,2.25
		c-0.544-0.161-1.094-0.308-1.654-0.43c-0.944-0.203-1.929-0.359-2.954-0.367l-0.022,2.254c1.623,0.019,3.363,0.467,5.032,1.015
		c0.162,0.053,0.322,0.116,0.482,0.171l0.395,0.284c0.027-0.037,0.059-0.075,0.086-0.11c1.341,0.497,2.661,1.083,3.946,1.736
		c3.183,1.629,6.167,3.663,8.856,6.021c2.691,2.358,5.082,5.056,7.049,8.031c1.504,2.274,2.754,4.712,3.719,7.258
		c-2.977-1.296-6.078-2.299-9.242-3.004c-4.002-0.9-8.091-1.34-12.172-1.425c-8.174-0.166-16.283,1.061-24.151,2.975
		c-3.938,0.957-7.824,2.098-11.668,3.335c-1.92,0.618-3.832,1.26-5.735,1.904c-1.901,0.638-3.801,1.301-5.676,1.838
		c-3.729,1.032-7.678,1.471-11.547,1.287c-1.934-0.1-3.853-0.371-5.678-0.888c-1.818-0.52-3.549-1.298-4.948-2.43
		c-1.402-1.125-2.423-2.622-2.897-4.335c-0.241-0.855-0.359-1.755-0.373-2.672c-0.006-0.461,0.011-0.915,0.053-1.387
		c0.038-0.438,0.11-0.895,0.206-1.326c0.242-1.105,0.727-2.102,1.387-2.976c2.452,3.741,6.356,5.194,10.786,4.835
		c0.576-0.048,0.035-0.75-0.359-0.718c-4.075,0.331-7.695-0.884-9.89-4.527c-0.028-0.047-0.072-0.088-0.123-0.125
		c0.275-0.305,0.574-0.593,0.902-0.855c1.197-0.968,2.678-1.654,4.24-2.201c0,0.062,0.006,0.12,0.028,0.169
		c1.023,2.41,5.228,2.842,7.336,3.024c0.421,0.038,0.547-0.905,0.134-0.941c-1.972-0.171-3.999-0.49-5.722-1.523
		c-0.381-0.227-0.839-0.56-1.099-0.964c0.022-0.008,0.042-0.015,0.062-0.022c3.697-1.173,7.705-1.665,11.692-2.899
		c1.978-0.637,4.035-1.467,5.747-3.026c0.423-0.393,0.812-0.819,1.16-1.306l0.222-0.316l0.242-0.372
		c0.146-0.241,0.288-0.482,0.416-0.732c0.518-0.99,0.886-2.041,1.133-3.099c0.494-2.119,0.555-4.244,0.472-6.313
		c-0.088-2.071-0.331-4.099-0.598-6.104c-0.392-2.986-0.878-5.945-1.061-8.854c0.322,0.13,0.646,0.254,0.978,0.373
		c0.781,0.279,1.57,0.52,2.367,0.731c1.593,0.42,3.216,0.714,4.851,0.893c3.269,0.354,6.583,0.233,9.815-0.329
		c3.234-0.561,6.381-1.558,9.362-2.9c0.758-0.345,1.43-0.668,2.156-0.956c0.72-0.289,1.451-0.553,2.192-0.796
		c1.481-0.482,2.998-0.877,4.529-1.193c6.13-1.245,12.547-1.352,18.638-0.013c3.038,0.678,5.99,1.741,8.69,3.251
		c2.112,1.176,4.059,2.64,5.764,4.34c-2.382,0.232-4.717,0.891-6.964,1.689c-2.876,1.041-5.621,2.409-8.201,4.024
		c-2.575,1.623-4.984,3.491-7.228,5.53C484.43,280.227,483.361,281.304,482.33,282.42z"/>
	<path d="M423.913,230.136c3.503,0.055,9.48-0.504,10.57,3.875c0.147,0.59,0.996,0.41,0.854-0.164
		c-1.245-5-7.186-4.594-11.324-4.658C423.454,229.18,423.352,230.126,423.913,230.136z"/>
	<path d="M423.745,236.155c-0.461-0.006,0.099,0.744,0.437,0.749c3.494,0.052,9.271-0.509,10.347,3.816
		c0.085,0.34,0.897,0.695,0.764,0.149C434.037,235.83,427.874,236.219,423.745,236.155z"/>
	<path d="M423.214,243.722c3.672,0.035,10.111-0.737,11.268,3.871c0.084,0.34,0.975,0.609,0.857,0.139
		c-1.331-5.302-8.286-4.641-12.529-4.68C422.253,243.046,422.862,243.718,423.214,243.722z"/>
	<path d="M434.594,254.521c0.119,0.48,0.786,0.633,0.633,0.018c-1.217-4.897-6.772-4.644-10.885-4.722
		c-0.446-0.009-0.194,0.902,0.195,0.911C427.913,250.792,433.553,250.333,434.594,254.521z"/>
	<path d="M435.332,261.503c-1.339-5.337-8.191-4.698-12.486-4.738c-0.569-0.006-0.038,0.711,0.33,0.715
		c3.628,0.034,10.167-0.75,11.31,3.81C434.574,261.635,435.449,261.968,435.332,261.503z"/>
	<path d="M424.338,263.563c-0.564-0.011-0.275,0.874,0.202,0.885c3.418,0.066,8.917-0.385,9.964,3.828
		c0.124,0.5,0.963,0.58,0.814-0.024C434.104,263.369,428.404,263.642,424.338,263.563z"/>
	<path d="M422.056,271.326c3.819,0.02,11.179-0.976,12.399,3.927c0.148,0.595,1.057,0.346,0.909-0.247
		c-1.377-5.528-8.962-4.609-13.302-4.632C421.455,270.372,421.448,271.324,422.056,271.326z"/>
	<path d="M423.027,277.248c-0.599-0.005-0.619,0.943-0.03,0.949c3.687,0.034,10.3-0.747,11.469,3.904
		c0.147,0.591,1.039,0.387,0.89-0.206C434.032,276.626,427.271,277.289,423.027,277.248z"/>
	<path d="M453.12,272.89c0.447-0.072,0.208-0.993-0.249-0.918c-4.211,0.678-8.847,0.099-12.667-1.839
		c-0.477-0.241-0.499,0.69-0.118,0.883C444.027,273.016,448.784,273.588,453.12,272.89z"/>
	<path d="M452.66,279.502c0.583-0.042,0.249-0.921-0.278-0.882c-3.746,0.273-7.711-0.276-11.086-1.989
		c-0.547-0.278-0.921,0.49-0.397,0.754C444.499,279.213,448.662,279.797,452.66,279.502z"/>
	<path d="M441.187,284.425c-0.536-0.275-0.628,0.627-0.179,0.857c2.675,1.373,5.692,1.96,8.673,2.137
		c0.578,0.034,0.47-0.883-0.033-0.914C446.729,286.331,443.805,285.769,441.187,284.425z"/>
	<path d="M450.934,303.216c-3.413,0.92-6.763,2.134-9.995,3.564c-0.556,0.245-0.235,1.133,0.318,0.887
		c3.232-1.428,6.582-2.642,9.994-3.562C451.844,303.944,451.514,303.059,450.934,303.216z"/>
	<path d="M423.896,311.727c-4.653,0.841-8.886-0.046-11.503-4.296c-0.324-0.528-0.958,0.043-0.657,0.534
		c2.76,4.483,7.327,5.597,12.295,4.698C424.589,312.562,424.424,311.634,423.896,311.727z"/>
	<path d="M481.514,300.892c5.423,0.407,10.994,1.471,16.078,3.437c0.544,0.211,0.772-0.685,0.284-0.876
		c-5.158-1.995-10.785-3.089-16.285-3.503C481.033,299.908,480.994,300.851,481.514,300.892z"/>
	<path d="M491.172,263.894c2.944,0.061,5.607,0.921,8.36,1.868c0.569,0.195,0.692-0.68,0.213-0.845
		c-2.891-0.992-5.682-1.878-8.776-1.942C490.438,262.965,490.679,263.885,491.172,263.894z"/>
	<path d="M485.785,276.112c-1.536-0.636-3.13-1.15-4.75-1.528c-0.58-0.135-0.383,0.749,0.084,0.857
		c1.544,0.362,3.065,0.867,4.531,1.472C486.224,277.15,486.261,276.309,485.785,276.112z"/>
	<path d="M417.892,230.061c0.973,0,1.948,0,2.923,0.011c0.508,0.005,0.082-0.821-0.298-0.827c-0.973-0.01-1.948-0.01-2.921-0.01
		C417.086,229.235,417.512,230.061,417.892,230.061z"/>
	<path d="M417.68,236.986c0.975,0,1.948,0,2.923,0.011c0.555,0.008,0.68-0.937,0.126-0.943c-0.973-0.012-1.948-0.012-2.923-0.012
		C417.253,236.042,417.127,236.986,417.68,236.986z"/>
	<path d="M417.678,243.828c0.781,0,1.56,0,2.339,0.005c0.371,0.003,0.081-0.892-0.239-0.895c-0.779-0.006-1.559-0.005-2.339-0.005
		C417.069,242.934,417.359,243.828,417.678,243.828z"/>
	<path d="M417.79,250.722c1.072,0,2.143-0.003,3.215,0.015c0.609,0.009,0.699-0.934,0.093-0.942
		c-1.072-0.016-2.144-0.016-3.216-0.016C417.273,249.779,417.183,250.722,417.79,250.722z"/>
	<path d="M420.035,256.677c-0.779-0.005-1.56-0.005-2.339-0.005c-0.31,0-0.626,0.885-0.271,0.885c0.778,0,1.558,0,2.338,0.005
		C420.072,257.564,420.387,256.678,420.035,256.677z"/>
	<path d="M421.106,263.535c-1.071-0.018-2.142-0.017-3.215-0.017c-0.459,0-0.624,0.932-0.11,0.932c1.07,0,2.142-0.003,3.215,0.015
		C421.453,264.472,421.62,263.543,421.106,263.535z"/>
	<path d="M419.107,271.321c0.544,0.002,0.618-0.941,0.044-0.944c-0.585-0.003-1.169-0.003-1.754-0.003
		c-0.544,0-0.617,0.945-0.044,0.945C417.938,271.32,418.522,271.32,419.107,271.321z"/>
	<path d="M419.909,277.246c-0.779-0.006-1.559-0.006-2.339-0.006c-0.494,0-0.514,0.952-0.023,0.952c0.781,0,1.56,0,2.34,0.006
		C420.38,278.2,420.401,277.249,419.909,277.246z"/>
	<path d="M455.697,272.091c1.147-0.222,2.252-0.617,3.156-1.374c0.258-0.218-0.081-1.096-0.378-0.848
		c-0.871,0.73-1.933,1.091-3.034,1.306C455.102,271.242,455.339,272.163,455.697,272.091z"/>
	<path d="M459.222,276.336c-1.151,0.952-2.618,1.295-4.074,1.447c-0.288,0.032-0.057,0.944,0.291,0.908
		c1.507-0.159,2.991-0.536,4.181-1.518C459.857,276.976,459.502,276.103,459.222,276.336z"/>
	<path d="M458.793,284.212c-1.671,1.35-3.913,1.517-5.981,1.447c-0.547-0.017-0.499,0.933,0.048,0.952
		c2.215,0.075,4.615-0.159,6.398-1.6C459.673,284.675,459.252,283.841,458.793,284.212z"/>
	<path d="M479.246,274.301c-0.97-0.213-1.953-0.381-2.948-0.395c-0.461-0.006-0.428,0.946,0.038,0.952
		c0.934,0.013,1.852,0.167,2.764,0.367C479.589,275.333,479.674,274.394,479.246,274.301z"/>
	<path d="M428.891,310.297c-1.017,0.418-2.056,0.767-3.132,0.99c-0.494,0.102,0.043,0.85,0.399,0.777
		c1.134-0.236,2.226-0.588,3.297-1.027C429.852,310.873,429.24,310.154,428.891,310.297z"/>
	<path d="M428.186,304.387c-0.913,0.307-1.845,0.538-2.802,0.638c-0.605,0.062-0.575,0.999,0.018,0.938
		c1.041-0.11,2.048-0.334,3.041-0.665C429.017,305.105,428.747,304.2,428.186,304.387z"/>
	<path d="M456.315,302.029c-0.792,0.079-1.569,0.245-2.338,0.444c-0.406,0.104-0.433,1.05,0.024,0.933
		c0.772-0.197,1.546-0.364,2.339-0.442C456.751,302.922,456.796,301.982,456.315,302.029z"/>
	<path d="M475.278,300.932c0.88-0.134,1.768-0.12,2.651-0.064c0.368,0.023,0.75-0.841,0.339-0.867
		c-0.94-0.058-1.883-0.065-2.816,0.078C475.104,300.135,474.795,301.008,475.278,300.932z"/>
</g>
</svg>
