<!--?xml version="1.0" encoding="utf-8"?-->
<!-- Generator: Adobe Illustrator 18.1.1, SVG Export Plug-In . SVG Version: 6.00 Build 0)  -->

<svg version="1.1" id="_x32_" xmlns="http://www.w3.org/2000/svg" xmlns:xlink="http://www.w3.org/1999/xlink" x="0px" y="0px" viewBox="0 0 512 512" style="width: 32px; height: 32px; opacity: 1;" xml:space="preserve">
<style type="text/css">
	.st0{fill:#4B4B4B;}
</style>
<g>
	<path class="st0" d="M486.562,115.434c-3.106-6.716-8.324-12.038-14.636-15.544c-6.31-3.506-13.683-5.286-21.464-5.286
		c-13.634,0-28.584,5.466-41.813,17.153c-11.018,9.727-20.749,23.788-27.784,42.506V16.354C380.865,7.327,373.524,0,364.511,0
		H134.97c-9.031,0-16.358,7.327-16.358,16.354V150.36l-34.634-13.044c-5.273-1.988-10.712-2.922-16.065-2.922
		c-9.242,0-18.178,2.796-25.676,7.91c-7.506,5.089-13.584,12.506-17.018,21.622c-1.987,5.268-2.931,10.725-2.931,16.065
		c0,9.224,2.814,18.161,7.907,25.676c5.093,7.48,12.519,13.575,21.64,17.009l30.719,11.562c-1.884,0.917-3.708,1.968-5.452,3.155
		c-7.089,4.828-12.883,11.867-16.12,20.507c-1.897,4.971-2.782,10.141-2.782,15.211c0,8.757,2.638,17.208,7.489,24.337
		c4.842,7.093,11.866,12.847,20.516,16.128l2.278,0.854c-0.841,0.485-1.676,1.016-2.476,1.564
		c-7.138,4.81-12.897,11.831-16.137,20.507c-1.893,4.971-2.783,10.132-2.783,15.202c0,8.775,2.652,17.208,7.507,24.31
		c4.796,7.138,11.831,12.892,20.461,16.128l2.27,0.864c-0.881,0.494-1.721,1.024-2.553,1.6c-7.107,4.801-12.892,11.84-16.138,20.47
		c-1.892,5.008-2.773,10.168-2.773,15.248c0,8.729,2.648,17.216,7.488,24.3c4.841,7.102,11.876,12.892,20.515,16.129l29.502,11.112
		c4.976,1.87,10.15,2.786,15.216,2.786c7.084,0,13.943-1.779,20.074-4.98c9.346,6.384,20.13,12.407,32.581,17.495
		c20.376,8.307,45.041,14.088,74.443,14.771c1.866,0.045,3.695,0.064,5.52,0.064c28.634,0.018,52.547-5.448,72.412-15.392
		c14.891-7.444,27.442-17.387,37.942-29.119c15.783-17.593,26.994-39.116,35.458-62.653c8.433-23.482,14.155-49.023,18.785-74.996
		c0.117-0.54,0.715-3.218,1.681-7.578c3.812-17.163,13.369-60.171,22.265-99.943c4.45-19.878,8.734-38.946,12.061-53.546
		c1.65-7.3,3.061-13.485,4.14-18.079c0.535-2.292,0.984-4.199,1.335-5.637c0.332-1.42,0.598-2.445,0.67-2.688
		c1.186-4.163,1.766-8.226,1.766-12.146C489.722,124.928,488.63,119.903,486.562,115.434z M57.583,207.359
		c-5.884-2.212-10.568-6.078-13.854-10.896c-3.276-4.819-5.084-10.573-5.084-16.47c0-3.425,0.593-6.886,1.884-10.311
		c2.225-5.88,6.077-10.582,10.9-13.864c4.81-3.263,10.582-5.079,16.484-5.079c3.402,0,6.877,0.593,10.288,1.879l40.411,15.211
		v62.508L57.583,207.359z M79.231,288.252c-3.012-4.45-4.679-9.709-4.679-15.14c0-3.146,0.562-6.311,1.731-9.457
		c2.027-5.394,5.596-9.719,10.014-12.73c4.414-3.003,9.714-4.675,15.112-4.675c3.138,0,6.312,0.566,9.449,1.726h0.031l7.723,2.93
		l21.788,8.199c4.028,1.511,7.421,3.866,10.173,6.815c0.912,0.971,1.766,2.049,2.553,3.2c3.003,4.406,4.644,9.71,4.644,15.104
		c0,3.147-0.557,6.329-1.736,9.493c-1.271,3.407-3.142,6.338-5.461,8.828c-1.376,1.475-2.877,2.751-4.554,3.892
		c-4.413,3.012-9.672,4.648-15.103,4.648c-3.146,0-6.32-0.557-9.457-1.744l-2.846-1.079l-26.656-9.997
		C86.554,296.208,82.234,292.675,79.231,288.252z M88.086,366.835c-2.994-4.432-4.634-9.719-4.634-15.131
		c0-3.137,0.548-6.311,1.734-9.439c2.019-5.431,5.552-9.71,10.007-12.767c4.41-3.002,9.713-4.656,15.112-4.656
		c2.751,0,5.533,0.413,8.306,1.357c0.396,0.1,0.755,0.262,1.151,0.387l29.506,11.121c0.454,0.162,0.876,0.333,1.304,0.531
		c4.809,2.094,8.666,5.394,11.412,9.448c3.017,4.45,4.675,9.719,4.675,15.148c0,3.146-0.548,6.312-1.721,9.458
		c0,0-0.041,0.054-0.041,0.09c-2.027,5.376-5.596,9.656-9.97,12.64c-4.419,3.003-9.722,4.666-15.125,4.666
		c-3.134,0-6.302-0.548-9.444-1.717l-11.746-4.424l-17.76-6.716C95.423,374.8,91.129,371.267,88.086,366.835z M174.055,449.787
		c-0.099,0.36-0.226,0.756-0.351,1.115c-2.036,5.395-5.574,9.71-10.006,12.712c-4.428,3.011-9.683,4.693-15.117,4.693
		c-3.142,0-6.316-0.558-9.454-1.744l-29.514-11.121c-5.43-2.022-9.714-5.601-12.722-10.015c-3.011-4.405-4.679-9.7-4.679-15.103
		c0-3.146,0.553-6.356,1.74-9.458c2.027-5.421,5.587-9.754,10.006-12.757c4.279-2.922,9.422-4.549,14.654-4.639h0.458
		c3.138,0,6.311,0.521,9.454,1.717l1.281,0.477l28.216,10.626c5.434,2.049,9.722,5.601,12.766,10.015
		c3.011,4.441,4.652,9.708,4.652,15.148C175.439,444.196,175.017,447,174.055,449.787z M155.059,322.396l-2.351-0.881
		c0.85-0.485,1.676-1.015,2.509-1.564c7.129-4.801,12.883-11.849,16.128-20.48c1.898-4.999,2.783-10.177,2.783-15.247
		c0-8.756-2.648-17.189-7.498-24.292c-3.951-5.853-9.417-10.806-16.056-14.169V49.068h198.979v321.678H182.223
		c0.485-2.643,0.795-5.286,0.795-7.912c0-8.765-2.643-17.207-7.484-24.345C170.692,331.405,163.658,325.633,155.059,322.396z
		 M261.197,404.324c0,6.32-5.133,11.462-11.454,11.462c-6.324,0-11.448-5.142-11.448-11.462c0-6.311,5.124-11.445,11.448-11.445
		C256.064,392.88,261.197,398.013,261.197,404.324z M472.218,137.892c-0.261,0.881-0.557,2.112-1.011,4
		c-1.659,6.94-5.071,21.882-9.26,40.474c-12.559,55.739-32.14,144.058-32.14,144.058l-0.036,0.162l-0.031,0.18
		c-4.042,22.727-8.91,44.825-15.549,65.034c-4.976,15.175-10.95,29.281-18.272,41.832c-11.005,18.852-24.917,34.171-43.306,44.932
		c-18.416,10.744-41.5,17.072-71.414,17.091c-1.681,0-3.398-0.036-5.143-0.072c-27.473-0.647-50.088-5.987-68.635-13.557
		c-9.534-3.902-17.984-8.397-25.474-13.162c2.93-3.578,5.358-7.66,7.057-12.209c0.858-2.247,1.51-4.575,1.932-6.868
		c0.338-1.609,0.553-3.218,0.675-4.818l172.898,1.546c9.013,0,16.354-7.327,16.354-16.344V211.925
		c2.972-10.446,6.801-23.913,11.759-41.336c6.374-22.349,16.326-37.273,26.858-46.587c10.537-9.305,21.73-13.045,30.981-13.045
		c7.057,0,12.9,2.166,16.775,5.484c1.933,1.663,3.426,3.587,4.468,5.852c1.038,2.256,1.645,4.855,1.654,7.929
		C473.36,132.516,473.019,135.059,472.218,137.892z" style="fill: rgb(75, 75, 75);"></path>
	<path class="st0" d="M296.811,296.11c13.966-8.954,15.248-9.772,15.337-9.853c3.695-2.347,4.77-7.282,2.401-10.977l-16.326-25.424
		c-2.365-3.695-7.288-4.774-10.982-2.383l-11.543,7.408c-3.363,2.149-7.821,1.456-10.393-1.601c0,0-7.754-7.946-19.329-25.999
		c-11.575-18.025-15.575-28.409-15.575-28.409c-1.718-3.605-0.477-7.929,2.885-10.087l11.54-7.426
		c3.694-2.355,4.773-7.282,2.395-10.968l-16.316-25.442c-2.37-3.695-7.288-4.748-10.982-2.401c-0.086,0.054-1.38,0.872-15.342,9.845
		c-16.268,10.446-7.525,55.181,15.692,91.384C243.499,279.972,280.552,306.556,296.811,296.11z" style="fill: rgb(75, 75, 75);"></path>
</g>
</svg>
